HIERARCHY
ROOT root
{
	OFFSET 0.000000 0.000000 0.000000
	CHANNELS 6 Xposition Yposition Zposition Zrotation Yrotation Xrotation
	JOINT lhip
	{
		OFFSET 0.058581 -0.082280 -0.017664
		CHANNELS 3 Zrotation Yrotation Xrotation
		JOINT lknee
		{
			OFFSET 0.043451 -0.386469 0.008037
			CHANNELS 3 Zrotation Yrotation Xrotation
			JOINT lankle
			{
				OFFSET -0.014790 -0.426874 -0.037428
				CHANNELS 3 Zrotation Yrotation Xrotation
				JOINT ltoe
				{
					OFFSET 0.041054 -0.060286 0.122042
					CHANNELS 3 Zrotation Yrotation Xrotation
					End Site
					{
						OFFSET 0.000000 0.000000 0.000000
					}
				}
			}
		}
	}
	JOINT rhip
	{
		OFFSET -0.060310 -0.090513 -0.013543
		CHANNELS 3 Zrotation Yrotation Xrotation
		JOINT rknee
		{
			OFFSET -0.043257 -0.383688 -0.004843
			CHANNELS 3 Zrotation Yrotation Xrotation
			JOINT rankle
			{
				OFFSET 0.019056 -0.420046 -0.034562
				CHANNELS 3 Zrotation Yrotation Xrotation
				JOINT rtoe
				{
					OFFSET -0.034840 -0.062106 0.130323
					CHANNELS 3 Zrotation Yrotation Xrotation
					End Site
					{
						OFFSET 0.000000 0.000000 0.000000
					}
				}
			}
		}
	}
	JOINT lowerback
	{
		OFFSET 0.004439 0.124404 -0.038385
		CHANNELS 3 Zrotation Yrotation Xrotation
		JOINT upperback
		{
			OFFSET 0.004488 0.137956 0.026820
			CHANNELS 3 Zrotation Yrotation Xrotation
			JOINT chest
			{
				OFFSET -0.002265 0.056032 0.002855
				CHANNELS 3 Zrotation Yrotation Xrotation
				JOINT lowerneck
				{
					OFFSET -0.013390 0.211636 -0.033468
					CHANNELS 3 Zrotation Yrotation Xrotation
					JOINT upperneck
					{
						OFFSET 0.010113 0.088937 0.050410
						CHANNELS 3 Zrotation Yrotation Xrotation
						End Site
						{
							OFFSET 0.000000 0.000000 0.000000
						}
					}
				}
				JOINT lclavicle
				{
					OFFSET 0.071702 0.114000 -0.018898
					CHANNELS 3 Zrotation Yrotation Xrotation
					JOINT lshoulder
					{
						OFFSET 0.122921 0.045205 -0.019046
						CHANNELS 3 Zrotation Yrotation Xrotation
						JOINT lelbow
						{
							OFFSET 0.255332 -0.015649 -0.022946
							CHANNELS 3 Zrotation Yrotation Xrotation
							JOINT lwrist
							{
								OFFSET 0.265709 0.012698 -0.007375
								CHANNELS 3 Zrotation Yrotation Xrotation
								End Site
								{
									OFFSET 0.000000 0.000000 0.000000
								}
							}
						}
					}
				}
				JOINT rclavicle
				{
					OFFSET -0.082954 0.112472 -0.023707
					CHANNELS 3 Zrotation Yrotation Xrotation
					JOINT rshoulder
					{
						OFFSET -0.113228 0.046853 -0.008472
						CHANNELS 3 Zrotation Yrotation Xrotation
						JOINT relbow
						{
							OFFSET -0.260127 -0.014369 -0.031269
							CHANNELS 3 Zrotation Yrotation Xrotation
							JOINT rwrist
							{
								OFFSET -0.269108 0.006794 -0.006027
								CHANNELS 3 Zrotation Yrotation Xrotation
								End Site
								{
									OFFSET 0.000000 0.000000 0.000000
								}
							}
						}
					}
				}
			}
		}
	}
}
MOTION
Frames: 16
Frame Time: 0.033333
-1.865040 0.013408 0.934358 56.483287 3.761972 97.173445 3.134046 -0.005403 -42.099438 -0.306037 26.407828 59.002955 4.912068 14.493935 -21.218179 0.000000 -0.000000 0.000000 -13.990607 -10.570974 4.816359 5.529644 3.320745 21.145421 12.688017 0.803150 -10.297392 0.000000 -0.000000 0.000000 2.669155 8.523563 15.998202 1.937586 -2.509299 0.358083 1.349768 3.230789 4.384525 -1.667957 -3.500100 -10.630430 1.371793 4.871863 -11.090275 -18.977085 11.338754 -0.797090 -47.438887 11.024798 9.849124 -90.260866 -67.305669 99.405745 28.787316 -5.155476 -6.010694 16.086315 1.099044 2.157505 42.985646 5.571553 14.148190 84.563573 86.447580 93.392415 -15.481626 16.034913 0.990048 
-1.806138 -0.010571 0.958200 57.099397 3.101330 96.863518 0.921538 -0.238725 -39.385069 -4.597167 24.638435 37.707857 5.369368 14.613632 -19.154522 0.000000 -0.000000 0.000000 -15.991862 -11.864001 9.982322 3.173759 2.898001 15.859174 17.080812 0.491907 7.572701 0.000000 -0.000000 0.000000 2.130176 10.426302 15.504469 1.743674 -2.489336 1.219529 1.667259 4.396430 3.983305 -1.964745 -4.428953 -9.881058 2.001007 3.477548 -11.083141 -17.326484 11.884746 0.246896 -47.225001 14.893867 10.429894 -89.648060 -65.701302 98.867839 29.201645 -6.575083 -4.883920 15.478502 2.039063 2.236481 44.804151 6.060712 15.368833 100.944045 86.102196 109.871879 -13.202769 16.072237 3.866145 
-1.744450 -0.036049 0.975997 58.402232 3.333366 96.799418 -0.449069 -1.820998 -36.039186 -6.384109 19.893387 22.991270 5.037310 14.228960 -15.196995 0.000000 -0.000000 0.000000 -16.236103 -12.237031 12.746851 0.124380 0.482207 14.317997 17.643395 -5.569123 24.655042 0.000000 -0.000000 0.000000 2.101634 10.800016 12.725449 1.827015 -2.836464 3.416360 1.804586 5.456383 3.965295 -2.444974 -5.890679 -9.295578 2.954828 3.583659 -10.993594 -15.897216 12.664790 1.535915 -47.893037 18.621145 10.605048 -88.267174 -64.678134 95.239692 31.332926 -7.937703 -4.389834 14.827272 3.803544 2.353920 46.755048 6.408819 17.969369 106.580531 86.171465 113.733830 -12.438911 15.286988 4.155617 
-1.684370 -0.060235 0.983422 61.904271 4.644058 96.221914 -0.213470 -3.981301 -33.780972 -6.637636 16.622481 21.208804 4.892083 13.283763 -11.141538 0.000000 -0.000000 0.000000 -12.758321 -10.390825 13.918633 0.912424 3.867894 19.146162 10.534129 -5.402295 21.992050 0.000000 -0.000000 0.000000 3.536513 8.896550 11.156573 2.412377 -3.401387 4.429190 0.977747 6.280583 4.581824 -0.966480 -5.346929 -10.509733 2.516322 1.561403 -9.722281 -14.757808 14.044283 2.327084 -48.619280 20.958810 9.451497 -85.838595 -63.320522 92.018869 30.487749 -7.928747 -7.262112 15.620763 4.465602 2.937842 46.985879 8.635436 17.877392 96.377474 83.172654 105.400494 -15.267680 18.938030 1.186209 
-1.616883 -0.082192 0.980043 63.078804 4.112449 96.131077 -2.166470 -6.635123 -30.329826 -6.936808 13.833594 23.442966 7.208172 14.844449 -9.052322 0.000000 -0.000000 0.000000 -11.021352 -5.674864 12.261085 1.601066 5.718461 27.176790 4.522928 -10.797498 24.418319 0.000000 -0.000000 0.000000 1.516045 9.925081 11.928284 2.971658 0.147832 -0.760257 2.863578 3.601167 5.012554 -1.142019 -9.620105 -7.060676 2.491869 3.567231 -9.808194 -15.999106 15.759443 4.935684 -47.644549 21.926863 9.680117 -82.941491 -63.282102 90.024410 31.508934 -7.252456 -7.049413 16.207424 2.641924 3.082447 48.215413 6.577204 21.091055 108.102396 82.456693 116.882081 -15.199842 18.254179 2.085657 
-1.554339 -0.103802 0.965077 64.779284 3.723851 94.291574 -5.178467 -7.770598 -23.469668 -6.966189 10.352232 24.413526 10.664653 16.711950 -12.691474 0.000000 -0.000000 0.000000 -10.561827 -4.098988 9.864240 0.049446 3.130712 38.812895 2.706269 -13.743282 20.857144 0.000000 -0.000000 0.000000 0.979888 8.924189 12.646578 2.845839 1.292044 -0.686317 2.550527 3.379605 5.447295 0.527294 -9.591336 -7.131289 1.662448 2.511651 -9.505269 -16.512760 16.411081 5.329147 -48.595687 21.329575 8.723260 -80.674402 -65.232048 89.960995 30.846495 -6.275098 -6.495502 16.901503 2.984156 1.711234 49.373195 6.018345 23.050321 109.680117 81.944034 120.295175 -17.252579 18.013211 -0.247291 
-1.495588 -0.122216 0.942243 66.517856 3.406414 93.674870 -8.029435 -6.505155 -22.109689 -6.876654 8.009642 31.961346 12.861858 18.836676 -19.149629 0.000000 -0.000000 0.000000 -9.995456 -3.180893 3.905146 -2.124857 1.461187 51.811163 0.143518 -17.130738 14.814387 0.000000 -0.000000 0.000000 0.738402 7.365684 13.867909 2.237773 2.167538 -2.936719 1.999762 3.002016 6.868936 1.745323 -9.477823 -8.100496 1.162375 2.438132 -8.100451 -17.341811 16.923055 4.439482 -49.974106 19.922451 7.738840 -77.650635 -66.804461 88.568047 31.057878 -4.489013 -6.688547 17.351685 2.501445 0.286699 51.540794 5.063798 24.408011 108.285483 82.151428 119.850325 -17.884376 17.412759 -0.809239 
-1.439290 -0.138160 0.922878 68.607327 1.814534 93.945167 -10.111175 -9.055720 -19.436748 -7.787301 8.098085 34.696225 12.774271 20.120921 -23.630544 0.000000 -0.000000 0.000000 -10.761750 -2.134778 -4.845837 -2.805514 0.674385 64.003658 0.995160 -17.180458 3.294580 0.000000 -0.000000 0.000000 -1.023396 6.076075 13.926129 2.140166 1.849132 -2.137102 1.344879 3.132179 6.822822 2.823574 -8.131056 -8.645322 0.851275 1.477140 -9.579800 -19.273247 16.602981 1.921491 -52.626595 15.915754 8.459555 -69.905646 -69.911741 79.452013 32.904062 -4.294442 -5.032702 18.556710 1.650618 -0.276414 53.546944 5.167877 25.288922 100.037438 84.395122 112.304554 -18.757117 16.685347 -0.560144 
-1.379533 -0.155057 0.913112 70.216750 1.763595 93.295148 -12.350789 -6.693602 -13.282556 -8.152528 3.861653 34.059221 12.662556 21.342261 -27.430927 0.000000 -0.000000 0.000000 -8.872640 0.793767 -12.694700 -3.012068 0.343372 71.718419 1.463403 -18.616408 -8.484326 0.000000 -0.000000 0.000000 -1.667347 4.076007 14.513576 2.048026 3.166160 -1.700833 1.283093 2.545778 7.248012 4.702017 -6.859709 -9.638307 -0.055741 0.226592 -9.369994 -20.839007 16.489542 -0.173434 -56.172112 9.383824 9.895617 -64.514898 -71.774376 74.211564 34.682252 -4.339485 -3.759902 19.824367 0.274233 -0.508788 54.339501 4.161850 25.764364 66.251602 86.257251 77.945861 -20.236336 17.482328 -0.673667 
-1.316568 -0.170174 0.914990 73.133442 2.834747 93.332888 -12.302869 -5.075505 -5.549272 -9.173392 -1.129962 29.761248 12.261793 22.197807 -27.713839 0.000000 -0.000000 0.000000 -6.229013 3.249739 -20.866245 -3.252919 -1.792405 73.828769 -0.970049 -20.931048 -12.998910 0.000000 -0.000000 0.000000 -0.815240 0.754837 14.351932 2.252974 3.523162 -2.272144 1.215303 1.452069 8.078291 4.776653 -5.421202 -9.284544 0.205749 0.519143 -8.095278 -21.874617 15.850400 -1.199454 -58.458820 3.572544 12.364965 -71.795137 -72.912428 82.929328 33.175869 -2.166592 -6.808919 20.023073 -1.708579 -0.067191 54.810712 2.193350 25.743288 33.422687 85.453034 47.021476 -27.274445 14.681321 -1.783413 
-1.252612 -0.179769 0.928633 78.220689 3.810133 93.906678 -11.806264 -4.487122 2.829403 -8.370726 -8.066742 23.749497 9.893070 21.349139 -24.602907 0.000000 -0.000000 0.000000 -6.035866 3.930609 -28.293001 -3.587137 -7.025787 71.272314 2.748598 -18.318928 -20.126892 0.000000 -0.000000 0.000000 0.534365 -4.025533 15.132911 2.772824 2.388456 -3.115437 0.897897 0.651834 7.888672 5.102702 -3.115444 -9.984207 0.148883 -0.025175 -6.294957 -21.535855 14.659958 -2.521237 -60.254452 -0.432397 15.809632 -88.309951 -74.174944 97.849332 31.912102 -2.098496 -7.724901 19.863704 -4.581972 -1.080963 55.883261 -1.583373 24.336276 24.531239 86.252310 37.542271 -21.391184 17.587828 -0.477092 
-1.182257 -0.194727 0.947425 79.608422 5.605318 94.707065 -8.444810 -2.007745 10.664018 -7.192312 -11.139419 16.483324 5.730042 17.430679 -16.411819 0.000000 -0.000000 0.000000 -5.354042 8.288009 -34.085105 -3.559674 -12.026342 63.413431 3.222065 -15.950376 -21.265635 0.000000 -0.000000 0.000000 0.944415 -7.480591 14.135437 3.727933 2.701446 -1.971205 1.689745 -0.205212 6.470798 4.895256 -0.279056 -9.013894 -0.237122 0.430402 -6.541205 -21.185028 14.313177 -3.071007 -60.481140 -2.969621 18.090834 -108.015635 -73.559797 115.874642 26.410242 -6.314720 -8.248350 19.640596 -7.045261 -0.444142 55.441589 -4.801933 23.300558 25.231852 87.236880 36.715701 -20.697753 15.990918 0.480183 
-1.104689 -0.205606 0.970423 82.887583 6.985466 94.703421 -4.383288 1.003291 17.850733 -5.295278 -12.460884 11.625959 0.705739 12.245417 -4.286655 0.000000 -0.000000 0.000000 -3.528772 7.517231 -33.788987 -1.149830 -13.225186 48.628963 3.588988 -13.959437 -19.913784 0.000000 -0.000000 0.000000 2.794603 -10.515063 13.137109 4.590528 0.697591 0.301002 2.037772 -1.407707 4.638248 3.048200 0.465440 -8.041446 0.404514 2.595854 -7.028369 -20.954981 13.474663 -2.658875 -59.665914 -4.416159 18.686412 -121.827539 -71.080259 129.622401 24.747932 -6.435050 -8.676836 18.673785 -8.525361 0.759176 54.638035 -7.279517 21.146164 42.475639 87.613277 52.745876 -20.398176 14.863588 1.272330 
-1.026619 -0.215936 0.987849 83.371474 6.744622 94.731830 -2.592069 4.235171 21.872508 -4.058241 -9.794463 9.625353 -4.497452 9.556208 9.602131 0.000000 -0.000000 0.000000 -2.863657 8.025089 -32.920886 1.443901 -11.555146 33.108886 4.228629 -11.564302 -15.918937 0.000000 -0.000000 0.000000 2.768301 -11.971660 11.989181 4.883008 -0.188109 1.557544 2.323860 -1.776854 3.602366 1.764211 1.399722 -7.228493 0.923034 3.542746 -7.131164 -20.183758 12.618074 -2.429528 -58.131511 -5.398570 19.367416 -125.744345 -69.914841 134.091373 25.777157 -8.974034 -7.555910 17.888643 -9.275970 1.950389 54.209615 -8.973819 19.575314 29.956750 87.890755 39.750510 -20.481940 14.053874 0.289044 
-0.945943 -0.225118 0.996243 83.685999 6.098243 94.705270 -1.691402 6.502677 22.564517 -3.399322 -5.940402 13.739221 -8.860496 9.262391 17.137710 0.000000 -0.000000 0.000000 -1.891613 6.230081 -31.389475 2.321520 -10.306459 22.348408 7.448044 -6.185540 -7.612789 0.000000 -0.000000 0.000000 2.944529 -11.997927 11.008351 4.747305 -1.200215 1.607910 2.636427 -2.007342 2.558091 0.080789 0.484656 -5.642973 2.000051 4.988069 -7.103865 -19.513664 11.940830 -1.934356 -57.179739 -4.819158 18.721064 -124.985553 -69.643868 132.638672 24.959739 -10.014895 -6.076767 16.980688 -9.912053 3.072001 53.349568 -10.568462 17.339424 33.842002 87.366514 42.173975 -19.976011 14.210448 -0.833556 
-0.865475 -0.234780 0.992965 83.793360 5.410591 93.957971 -1.797589 6.879248 20.771808 -2.920768 -1.852924 24.331364 -7.498747 10.540498 17.171256 0.000000 -0.000000 0.000000 -1.021425 4.585985 -29.409313 2.256829 -10.923197 20.034075 7.864057 -4.484359 -5.889527 0.000000 -0.000000 0.000000 3.026139 -11.084107 10.100505 4.693762 -2.074662 2.272728 2.491474 -1.947966 2.577466 -0.540056 -0.649624 -5.460612 2.584470 4.861736 -7.235070 -18.468481 11.243785 -1.704818 -57.435862 -4.689793 17.223516 -120.364213 -70.796001 126.248255 27.448580 -13.368788 -3.385513 16.436835 -9.517173 3.192434 52.688734 -10.975440 15.594757 26.606504 87.238890 34.460581 -17.605294 15.121551 -0.252559 
